<?xml version="1.0" encoding="UTF-8"?>
<svg id="_Слой_2" data-name="Слой_2" xmlns="http://www.w3.org/2000/svg" viewBox="0 0 200 206.96">
  <defs>
    <style>
      .cls-1 {
        fill: #fff;
      }

      .cls-2 {
        fill: url(#_Безымянный_градиент_18);
      }
    </style>
    <linearGradient id="_Безымянный_градиент_18" x1="8.79" y1="8.79" x2="191.21" y2="191.21" gradientUnits="userSpaceOnUse">
      <stop offset="0" stop-color="#26214e"/>
      <stop offset="1" stop-color="#383f91"/>
    </linearGradient>
  </defs>
  <rect class="cls-2" x="0" width="200" height="200" rx="30" ry="30"/>
  <g>
    <path class="cls-1" d="M92.75,49.35l.76,6.12c-36.75,3.28-65.55,34.15-65.55,71.74,0,13.83,3.89,26.75,10.65,37.72-8.97-12.43-14.26-27.7-14.26-44.21,0-37.44,27.2-68.53,62.93-74.57l2.58.32c1.51.19,2.7,1.38,2.89,2.88Z"/>
    <path class="cls-1" d="M161.38,164.93c6.76-10.97,10.65-23.89,10.65-37.72,0-37.59-28.8-68.46-65.55-71.74l.76-6.12c.19-1.5,1.38-2.69,2.89-2.88l2.58-.32c35.72,6.04,62.93,37.12,62.93,74.57,0,16.51-5.29,31.78-14.26,44.21Z"/>
    <path class="cls-1" d="M140.62,159.36h-18.31l-2.94-10.68h-38.73l-2.94,10.68h-18.31l24.01-87.14h33.23l24.01,87.14ZM113.25,126.47l-8.94-32.46h-8.6l-8.94,32.46h26.49Z"/>
    <path class="cls-1" d="M127.8,39.22l-18.28,2.29c-2.47.31-4.6,1.69-5.9,3.66-.7,1.04-1.16,2.25-1.33,3.56l-.81,6.47-1.47,11.82-1.48-11.82-.81-6.47c-.16-1.31-.63-2.52-1.33-3.56-1.3-1.97-3.43-3.35-5.9-3.66l-18.28-2.29,18.28-2.28c3.78-.47,6.76-3.45,7.23-7.23l2.29-18.28,2.28,18.28c.47,3.78,3.45,6.76,7.23,7.23l18.28,2.28Z"/>
  </g>
</svg>