<?xml version="1.0" encoding="UTF-8"?>
<svg id="_Слой_1" data-name="Слой_1" xmlns="http://www.w3.org/2000/svg" viewBox="0 0 501.68 321.49">
  <defs>
    <style>
      .cls-1 {
        fill: #fff;
      }
    </style>
  </defs>
  <path class="cls-1" d="M240.99,225.18c-63.13,2.51-113.87,43.2-117.79,94.17-.01.05-.01.1-.02.15-.07.66-.13,1.32-.18,1.99-.03-.86-.04-1.72-.04-2.59,0-53.4,51.29-97.09,116.13-100.46.85,1.25,1.41,2.71,1.6,4.29l.3,2.45ZM254.33,218.44c-.82,1.25-1.37,2.71-1.55,4.29l-.29,2.45c61.23,2.51,110.44,43.2,114.25,94.17,0,.05,0,.1.02.15.07.66.13,1.32.17,1.99.03-.86.04-1.72.04-2.59,0-53.4-49.75-97.09-112.64-100.46ZM248.4,199.37l-1.73-14.22-1.73,14.22c-.55,4.51-4.1,8.06-8.61,8.61l-14.22,1.73,14.22,1.73c4.51.55,8.06,4.1,8.61,8.61l1.73,14.22,1.73-14.22c.55-4.51,4.1-8.06,8.61-8.61l14.22-1.73-14.22-1.73c-4.51-.55-8.06-4.1-8.61-8.61ZM169.97,257.41c-15.53,17.74-27.83,35.35-36.35,57.37,4.73-1.39,7.13-2.05,11.98-3.29.81-3.24,1.37-4.74,2.5-7.81,10.09-2.83,15.29-4.07,25.92-6.15.64,2.95.99,4.4,1.9,7.59,5.09-.86,7.66-1.24,12.83-1.94-4.39-18.19-8.29-36.32-3.04-54.82-6.72,3.2-9.89,5.03-15.73,9.05ZM155.03,287.9c4.61-9.08,7.34-13.53,13.15-21.99,1.86-.85,2.81-1.27,4.72-2.07-1.54,6.91-1.73,10.75-1.11,18.98-6.87,1.83-10.23,2.85-16.77,5.08ZM231.67,235.97c-.7,8.2-.99,12.63-1.42,21.94-8.14.54-12.15.99-19.99,2.22-1.73.27-2.76-2.27-2.21-5.59,1.04-6.36,1.67-9.41,3.07-15.16-4.25,1.03-6.33,1.63-10.38,2.96-2.97,8.56-4.2,13.24-6,23.15-1.23,6.77,1.05,12.06,4.65,11.49,9.97-1.64,20.23-2.72,30.32-3.2-.01.66-.02.99-.04,1.65-.08,3.76-1.64,6.95-3.52,7.06-7.57.43-11.33.76-18.74,1.6-1.31.15-2.27-1.87-2.12-4.47-5.14.67-7.69,1.06-12.72,1.93-.27,2.98-.38,4.49-.53,7.54-.38,7.37,2.79,13.3,6.49,12.89,12.47-1.37,24.99-2.18,37.53-2.44,3.8-.08,6.87-6.74,6.87-14.53.03-16.55.09-33.1.28-49.65-4.68.07-6.99.2-11.54.62ZM250.15,235.44c.66,21.34.8,42.69.75,64.04,5.35.07,8.02.15,13.35.39.2-11.06.1-15.93-.18-25.87,10.04.6,20.26,1.8,30.16,3.56,3.57.61,5.78-4.6,4.44-11.31-.99-4.96-1.57-7.37-2.89-12.01-1.79-6.28-5.91-11.76-8.83-12.66-11.92-3.66-24.33-5.69-36.79-6.14ZM285.82,258.16c.16,1.78-.52,2.9-1.47,2.73-8.21-1.46-12.42-2.02-20.97-2.72-.18-3.09-.28-4.62-.5-7.6,8.35.76,12.44,1.37,20.39,2.96,1.11.22,2.35,2.35,2.55,4.62ZM304.38,248.35c5.95,17.81,1.19,37.3-3.04,54.82,5.17.7,7.74,1.08,12.83,1.94.91-3.18,1.25-4.64,1.9-7.59,10.62,2.08,15.83,3.32,25.92,6.15,1.13,3.08,1.69,4.58,2.5,7.81,4.85,1.24,7.25,1.89,11.98,3.29-8.53-22.06-20.86-39.68-36.35-57.37-5.84-4.02-9.01-5.85-15.73-9.05ZM318.28,282.81c.62-8.22.43-12.06-1.11-18.98,1.91.8,2.86,1.22,4.72,2.07,5.81,8.47,8.54,12.91,13.15,21.99-6.53-2.23-9.89-3.25-16.77-5.08Z"/>
</svg>