<?xml version="1.0" encoding="UTF-8"?>
<svg id="_Слой_1" data-name="Слой_1" xmlns="http://www.w3.org/2000/svg" xmlns:xlink="http://www.w3.org/1999/xlink" viewBox="0 0 200 206.96">
  <defs>
    <style>
      .cls-1, .cls-2 {
        fill: #fff;
      }

      .cls-3 {
        fill: url(#_Безымянный_градиент_23-2);
      }

      .cls-4 {
        fill: url(#_Безымянный_градиент_23);
      }

      .cls-5 {
        fill: url(#_Безымянный_градиент_18);
      }

      .cls-2 {
        stroke: #fff;
        stroke-linecap: round;
        stroke-linejoin: round;
        stroke-width: 3px;
      }

      .cls-6 {
        fill: url(#_Безымянный_градиент_67);
      }

      .cls-7 {
        fill: url(#_Безымянный_градиент_18-2);
      }
    </style>
    <linearGradient id="_Безымянный_градиент_18" x1="11.05" y1="103.48" x2="169.91" y2="103.48" gradientUnits="userSpaceOnUse">
      <stop offset="0" stop-color="#26214e"/>
      <stop offset="1" stop-color="#383f91"/>
    </linearGradient>
    <linearGradient id="_Безымянный_градиент_18-2" x1="15.47" y1="60.59" x2="164.69" y2="146.74" xlink:href="#_Безымянный_градиент_18"/>
    <linearGradient id="_Безымянный_градиент_23" x1="33.5" y1="152.73" x2="147.28" y2="152.73" gradientUnits="userSpaceOnUse">
      <stop offset="0" stop-color="#26214e"/>
      <stop offset=".92" stop-color="#383f91"/>
    </linearGradient>
    <linearGradient id="_Безымянный_градиент_23-2" y1="172.87" y2="172.87" xlink:href="#_Безымянный_градиент_23"/>
    <linearGradient id="_Безымянный_градиент_67" x1="113.06" y1="28.95" x2="168.66" y2="28.95" gradientUnits="userSpaceOnUse">
      <stop offset="0" stop-color="#3b347a"/>
      <stop offset="1" stop-color="#383f91"/>
    </linearGradient>
  </defs>
  <path class="cls-5" d="M166.91,48.75c-1.01-1.79-2.28-3.46-3.77-4.95L126.1,6.76c-1.49-1.49-3.15-2.75-4.93-3.76-3.44-1.96-7.34-3-11.4-3H34.14C21.41,0,11.05,10.36,11.05,23.09v160.78c0,12.73,10.36,23.09,23.09,23.09h112.67c12.74,0,23.1-10.36,23.1-23.09V60.13c0-4.05-1.04-7.95-3-11.38ZM123.98,8.89l37.04,37.03c2.26,2.26,3.93,5,4.89,7.99h-49.91V4c2.98.96,5.72,2.63,7.98,4.89Z"/>
  <path class="cls-1" d="M166.51,60.13v123.74c0,11.09-9,20.09-20.1,20.09H33.74c-11.1,0-20.09-9-20.09-20.09V23.09c0-11.09,8.99-20.09,20.09-20.09h75.63c2.13,0,4.24.34,6.23,1v49.91h49.91c.66,1.99,1,4.08,1,6.22Z"/>
  <rect class="cls-7" x="6.06" y="69.58" width="168.05" height="68.16" rx="10" ry="10"/>
  <rect class="cls-4" x="33.5" y="148.28" width="113.78" height="8.9" rx="4.45" ry="4.45"/>
  <rect class="cls-3" x="33.5" y="168.42" width="113.78" height="8.9" rx="4.45" ry="4.45"/>
  <g>
    <path class="cls-2" d="M20.15,114.26c0-1.81,1.29-3.05,2.86-3.05s2.86,1.24,2.86,3.05-1.29,2.99-2.86,2.99-2.86-1.24-2.86-2.99Z"/>
    <path class="cls-2" d="M38.08,85.17h9.87c6.42,0,11.02,2.3,11.02,8.87s-4.61,9.32-11.02,9.32h-5.86v13.32h-4.01v-31.51ZM47.37,100.1c4.9,0,7.6-1.99,7.6-6.07s-2.7-5.62-7.6-5.62h-5.28v11.69h5.28ZM47.16,102.26l3.14-2.07,9.61,16.49h-4.54l-8.21-14.42Z"/>
    <path class="cls-2" d="M67.24,112.57l2.4-2.75c2.27,2.35,5.42,3.9,8.69,3.9,4.13,0,6.59-2.06,6.59-5.12,0-3.22-2.28-4.24-5.26-5.54l-4.53-2c-2.94-1.25-6.38-3.48-6.38-8.11s4.19-8.36,9.92-8.36c3.73,0,7.06,1.62,9.28,3.9l-2.13,2.58c-1.93-1.82-4.24-2.95-7.15-2.95-3.53,0-5.87,1.78-5.87,4.6,0,3.04,2.75,4.17,5.21,5.21l4.49,1.94c3.65,1.57,6.49,3.74,6.49,8.42,0,4.98-4.11,8.95-10.74,8.95-4.42,0-8.27-1.8-11.02-4.68Z"/>
    <path class="cls-2" d="M99.95,85.17h4.01v15.8h.13l13.09-15.8h4.53l-9.86,12.01,11.38,19.5h-4.47l-9.4-16.37-5.4,6.41v9.96h-4.01v-31.51Z"/>
    <path class="cls-2" d="M132.54,85.17h4.83l6.04,16.83c.76,2.15,1.48,4.38,2.24,6.56h.19c.76-2.19,1.42-4.41,2.18-6.56l5.97-16.83h4.83v31.51h-3.73v-17.35c0-2.74.31-6.53.51-9.32h-.19l-2.5,7.19-5.93,16.3h-2.66l-5.96-16.3-2.5-7.19h-.19c.2,2.79.51,6.57.51,9.32v17.35h-3.63v-31.51Z"/>
  </g>
  <g>
    <path class="cls-1" d="M165.81,53.91h-49.86s-.04-.02-.04-.04V4c2.98.96,5.72,2.63,7.98,4.89l37.04,37.03c2.26,2.26,3.93,5,4.89,7.98,0,0,0,0,0,0Z"/>
    <path class="cls-6" d="M115.91,4c2.98.96,5.72,2.63,7.98,4.89l37.04,37.03c2.26,2.26,3.93,5,4.89,7.98,0,0,0,0,0,0h-49.86s-.04-.02-.04-.04V4M115.91,1.15c-.6,0-1.18.19-1.68.55-.74.54-1.17,1.39-1.17,2.3v49.87c0,1.59,1.3,2.89,2.89,2.89h49.86c.91,0,1.77-.44,2.3-1.17.54-.73.69-1.69.41-2.55-1.1-3.42-3.03-6.57-5.59-9.13L125.9,6.88c-2.56-2.56-5.71-4.49-9.12-5.59-.29-.09-.58-.14-.87-.14h0Z"/>
  </g>
</svg>